<svg width="16" height="16" viewBox="0 0 16 16" fill="none" xmlns="http://www.w3.org/2000/svg">
<path d="M10.6144 4.50138C10.0307 4.50133 9.51163 4.50128 9.09256 4.55764C8.63706 4.6189 8.17713 4.76016 7.80123 5.13618C7.42532 5.5122 7.28411 5.97228 7.22287 6.42792C7.16653 6.84712 7.16657 7.36636 7.16662 7.95025L7.16663 8.50264H6.66663C6.20639 8.50264 5.83329 8.87585 5.83329 9.33624C5.83329 9.79662 6.20639 10.1698 6.66663 10.1698H7.16663V14.1681C7.16663 14.4843 7.16663 14.6424 7.0675 14.7403C6.96837 14.8382 6.8115 14.8363 6.49776 14.8323C5.7048 14.8222 5.03046 14.7944 4.45864 14.7175C3.54087 14.5941 2.8127 14.336 2.24057 13.7637C1.66844 13.1914 1.41041 12.463 1.28702 11.5449C1.16661 10.649 1.16662 9.50154 1.16663 8.04062V7.96435C1.16662 6.50343 1.16661 5.35593 1.28702 4.46004C1.41041 3.54198 1.66844 2.81358 2.24057 2.24127C2.8127 1.66896 3.54087 1.41086 4.45864 1.28743C5.35425 1.16698 6.50138 1.16698 7.96184 1.16699H8.03808C9.49854 1.16698 10.6457 1.16698 11.5413 1.28743C12.459 1.41086 13.1872 1.66896 13.7594 2.24127C14.3315 2.81358 14.5895 3.54198 14.7129 4.46004C14.8333 5.35593 14.8333 6.50343 14.8333 7.96435V8.04062C14.8333 9.50154 14.8333 10.649 14.7129 11.5449C14.5895 12.463 14.3315 13.1914 13.7594 13.7637C13.1872 14.336 12.459 14.5941 11.5413 14.7175C10.9695 14.7944 10.2951 14.8222 9.50216 14.8323C9.18842 14.8363 9.03155 14.8382 8.93242 14.7403C8.83329 14.6424 8.83329 14.4843 8.83329 14.1681V10.1698H9.99996C10.4602 10.1698 10.8333 9.79662 10.8333 9.33624C10.8333 8.87585 10.4602 8.50264 9.99996 8.50264H8.83329V8.00248C8.83329 7.35018 8.83506 6.94481 8.87468 6.65007C8.91043 6.38404 8.96323 6.33149 8.97894 6.31587L8.97974 6.31506L8.98054 6.31426C8.99616 6.29855 9.0487 6.24574 9.31464 6.20997C9.60929 6.17034 10.0145 6.16857 10.6666 6.16857H11.3333C11.7935 6.16857 12.1666 5.79536 12.1666 5.33498C12.1666 4.87459 11.7935 4.50138 11.3333 4.50138L10.6144 4.50138Z" fill="#854A0E"/>
</svg>
