<svg width="16" height="16" viewBox="0 0 16 16" fill="none" xmlns="http://www.w3.org/2000/svg">
<path fill-rule="evenodd" clip-rule="evenodd" d="M8.03837 14.8337C9.49854 14.8337 10.6455 14.8336 11.541 14.7132C12.4587 14.5898 13.1869 14.3316 13.7591 13.7594C14.3312 13.1873 14.5895 12.4591 14.7128 11.5413C14.8332 10.6458 14.8333 9.49891 14.8333 8.03874V7.96191C14.8333 6.50174 14.8332 5.35482 14.7128 4.45931C14.5895 3.54154 14.3312 2.81334 13.7591 2.24121C13.1869 1.66908 12.4587 1.41083 11.541 1.28744C10.6455 1.16707 9.49854 1.16698 8.03837 1.16699H7.96155C6.50138 1.16698 5.35445 1.16707 4.45894 1.28744C3.54117 1.41083 2.81298 1.66908 2.24084 2.24121C1.66871 2.81334 1.41046 3.54154 1.28707 4.45931C1.1667 5.35482 1.16662 6.50174 1.16663 7.96191V8.03874C1.16662 9.49891 1.1667 10.6458 1.28707 11.5413C1.41046 12.4591 1.66871 13.1873 2.24084 13.7594C2.81298 14.3316 3.54117 14.5898 4.45894 14.7132C5.35445 14.8336 6.50137 14.8337 7.96155 14.8337H8.03837ZM11.6686 5.00033C11.3022 5.00018 11.0052 4.70176 11.0052 4.33366C11.0052 3.96556 11.3022 3.66714 11.6686 3.66699H11.6751C12.0415 3.66714 12.3385 3.96556 12.3385 4.33366C12.3385 4.70176 12.0415 5.00018 11.6751 5.00033H11.6686ZM7.99996 11.0003C6.3431 11.0003 4.99996 9.65718 4.99996 8.00033C4.99996 6.34347 6.3431 5.00033 7.99996 5.00033C9.65681 5.00033 11 6.34347 11 8.00033C11 9.65718 9.65681 11.0003 7.99996 11.0003Z" fill="#854A0E"/>
</svg>
