<svg width="16" height="16" viewBox="0 0 16 16" fill="none" xmlns="http://www.w3.org/2000/svg">
<path d="M3.33329 6.00033H2.99996C2.37142 6.00033 2.05715 6.00033 1.86189 6.19559C1.66663 6.39085 1.66663 6.70512 1.66663 7.33366V13.0003C1.66663 13.6289 1.66663 13.9431 1.86189 14.1384C2.05715 14.3337 2.37142 14.3337 2.99996 14.3337H3.33329C3.96183 14.3337 4.2761 14.3337 4.47136 14.1384C4.66663 13.9431 4.66663 13.6289 4.66663 13.0003V7.33366C4.66663 6.70512 4.66663 6.39085 4.47136 6.19559C4.2761 6.00033 3.96183 6.00033 3.33329 6.00033Z" fill="#854A0E"/>
<path d="M4.66663 3.16699C4.66663 3.99542 3.99505 4.66699 3.16663 4.66699C2.3382 4.66699 1.66663 3.99542 1.66663 3.16699C1.66663 2.33856 2.3382 1.66699 3.16663 1.66699C3.99505 1.66699 4.66663 2.33856 4.66663 3.16699Z" fill="#854A0E"/>
<path d="M7.88399 6.00033H7.33329C6.70475 6.00033 6.39048 6.00033 6.19522 6.19559C5.99996 6.39085 5.99996 6.70512 5.99996 7.33366V13.0003C5.99996 13.6289 5.99996 13.9431 6.19522 14.1384C6.39048 14.3337 6.70475 14.3337 7.33329 14.3337H7.66664C8.29517 14.3337 8.60944 14.3337 8.8047 14.1384C8.99996 13.9431 8.99997 13.6289 8.99997 13.0003L9 10.6671C9 9.5625 9.35203 8.66707 10.3919 8.66707C10.9118 8.66707 11.3333 9.11479 11.3333 9.66707V12.6671C11.3333 13.2956 11.3333 13.6099 11.5285 13.8051C11.7238 14.0004 12.0381 14.0004 12.6666 14.0004H12.9991C13.6275 14.0004 13.9417 14.0004 14.137 13.8052C14.3322 13.61 14.3323 13.2958 14.3324 12.6674L14.3333 9.00048C14.3333 7.34363 12.7576 6.00048 11.1978 6.00048C10.3099 6.00048 9.51773 6.43572 9 7.11629C8.99998 6.69628 8.99998 6.48628 8.90873 6.33032C8.85095 6.23157 8.76872 6.14935 8.66996 6.09157C8.51401 6.00033 8.304 6.00033 7.88399 6.00033Z" fill="#854A0E"/>
</svg>
