<svg width="145" height="26" viewBox="0 0 145 26" fill="none" xmlns="http://www.w3.org/2000/svg">
<g clip-path="url(#clip0_992_17993)">
<path d="M17.4513 0.000675201H7.88637C3.5309 0.000675201 9.15527e-05 3.53148 9.15527e-05 7.88695V17.4518C9.15527e-05 21.8073 3.5309 25.3381 7.88637 25.3381H17.4513C21.8067 25.3381 25.3375 21.8073 25.3375 17.4518V7.88695C25.3375 3.53148 21.8067 0.000675201 17.4513 0.000675201Z" fill="#FFC700"/>
<path d="M14.7748 8.10124C14.7431 8.18834 14.6956 8.26752 14.6243 8.33086C14.4897 8.46547 14.3155 8.53673 14.1334 8.53673C13.9513 8.53673 13.785 8.47339 13.6425 8.33086C13.3733 8.06165 13.3733 7.62617 13.6425 7.35695C13.7058 7.29361 13.785 7.23819 13.8721 7.20651C13.9513 7.16692 14.0384 7.15901 14.1255 7.15901C14.1967 7.15901 14.268 7.17484 14.3393 7.1986C14.4422 7.23027 14.5372 7.28569 14.6164 7.36487C14.6956 7.44405 14.751 7.53907 14.7827 7.642C14.8302 7.79244 14.8302 7.95872 14.7668 8.10916L14.7748 8.10124Z" fill="#141314"/>
<path d="M17.1978 18.7912C17.1978 19.2583 17.0077 19.7096 16.6831 20.0422C16.3585 20.3748 15.8992 20.5569 15.4321 20.5569H15.3846L12.6449 20.4777C12.154 20.4619 11.6948 20.2639 11.3464 19.9155L7.03112 15.6081C6.46103 15.0381 6.42936 14.1117 6.89652 13.399C6.96778 13.2882 7.05488 13.1853 7.15781 13.0823L7.22115 13.019L8.20298 14.0008L8.13964 14.0641C8.02087 14.1908 7.95752 14.3413 7.95752 14.46C7.95752 14.5313 7.97336 14.5867 8.02087 14.6263L12.3282 18.9416C12.4232 19.0366 12.5499 19.092 12.6845 19.092L13.7297 19.1237L14.474 19.1396L15.4241 19.1633H15.44C15.5746 19.1633 15.6696 19.092 15.7092 19.0525C15.7488 19.0049 15.828 18.9178 15.82 18.7753L15.7963 17.8093L15.7805 17.0888L15.7488 16.0357C15.7488 15.9011 15.6934 15.7744 15.5904 15.6794L14.2681 14.3492L13.9197 14.0008L13.5713 13.6524L12.5974 12.6706L12.2491 12.3222L11.9007 11.9738L11.2989 11.372C11.2593 11.3325 11.2039 11.3087 11.1326 11.3087C11.0139 11.3087 10.8634 11.372 10.7367 11.4908L10.2537 11.9738L9.90534 12.3222L8.92351 11.3404L9.2719 10.992L9.7549 10.509C10.1429 10.121 10.6496 9.92306 11.1326 9.92306C11.5602 9.92306 11.9719 10.0735 12.2807 10.3823L16.596 14.6976C16.9365 15.046 17.1423 15.5052 17.1503 15.9961L17.2294 18.7437C17.2294 18.7437 17.2294 18.7753 17.2294 18.7912H17.1978Z" fill="#141314"/>
<path d="M17.1979 6.60503L17.1187 9.34464C17.1108 9.83555 16.9049 10.2948 16.5645 10.6432L14.8858 12.3218L13.9119 11.34L15.5826 9.66927C15.6776 9.57426 15.7331 9.44757 15.741 9.31297L15.7727 8.2678L15.7885 7.52351L15.8122 6.57336C15.8122 6.43083 15.741 6.33582 15.7014 6.29623C15.6618 6.25664 15.5747 6.18538 15.4322 6.18538H15.4164L14.4662 6.20913L13.7219 6.22497L12.6767 6.25664C12.5421 6.25664 12.4154 6.31206 12.3204 6.40708L8.01307 10.7224C7.97348 10.762 7.94972 10.8174 7.94972 10.8886C7.94972 11.0074 8.01307 11.1658 8.13184 11.2845L8.18726 11.3479L8.53565 11.6963L9.51748 12.6702L10.2143 13.367L10.6973 13.85C10.816 13.9766 10.9744 14.0321 11.0932 14.0321C11.1644 14.0321 11.2198 14.0162 11.2594 13.9687L12.2096 13.0186L13.1835 14.0004L12.843 14.3488L12.2333 14.9505C11.9245 15.2593 11.5128 15.4098 11.0852 15.4098C10.6022 15.4098 10.1034 15.2118 9.70751 14.8239L9.22451 14.3409L7.14209 12.2584C7.04708 12.1634 6.95998 12.0526 6.8808 11.9417C6.41364 11.2291 6.44531 10.3106 7.01541 9.74054L11.3307 5.42525C11.6712 5.07686 12.1383 4.87891 12.6292 4.86308L15.3688 4.7839H15.4164C15.8835 4.7839 16.3348 4.96601 16.6674 5.29857C17.0079 5.63904 17.1979 6.11411 17.1821 6.59711L17.1979 6.60503Z" fill="#141314"/>
<path d="M14.7906 17.7055C14.759 17.8085 14.7035 17.9035 14.6243 17.9827C14.5452 18.0618 14.4502 18.1173 14.3472 18.1489C14.2839 18.1727 14.2047 18.1885 14.1334 18.1885C14.0463 18.1885 13.9592 18.1727 13.8801 18.141C13.8009 18.1093 13.7217 18.0618 13.6504 17.9906C13.3812 17.7214 13.3812 17.2859 13.6504 17.0167C13.785 16.8821 13.9592 16.8108 14.1414 16.8108C14.3235 16.8108 14.4977 16.8821 14.6323 17.0167C14.6956 17.08 14.751 17.1592 14.7827 17.2463C14.8461 17.3967 14.8461 17.563 14.7985 17.7134L14.7906 17.7055Z" fill="#141314"/>
</g>
<g clip-path="url(#clip1_992_17993)">
<path d="M142.127 18.8873C141.573 18.8873 141.108 18.7018 140.73 18.3306C140.358 17.9595 140.173 17.5008 140.173 16.9545C140.173 16.4083 140.358 15.9496 140.73 15.5785C141.108 15.2073 141.573 15.0217 142.127 15.0217C142.673 15.0217 143.132 15.2073 143.503 15.5785C143.874 15.9496 144.06 16.4083 144.06 16.9545C144.06 17.5008 143.874 17.9595 143.503 18.3306C143.132 18.7018 142.673 18.8873 142.127 18.8873Z" fill="#FFC700"/>
<path d="M135.33 18.6985C136.423 18.6985 137.33 18.9821 138.051 19.5494C138.779 20.1236 139.235 20.9149 139.417 21.9234L136.528 22.7007C136.486 22.3015 136.307 21.9829 135.992 21.7448C135.677 21.5067 135.274 21.3876 134.784 21.3876H131.192C130.169 21.3876 129.346 21.118 128.723 20.5788C128.107 20.0396 127.799 19.3323 127.799 18.4569C127.799 17.8967 127.932 17.368 128.198 16.8708C128.471 16.3736 128.832 15.9849 129.28 15.7048C128.307 14.7944 127.82 13.6564 127.82 12.2909C127.82 10.9113 128.307 9.76282 129.28 8.84544C130.26 7.92806 131.486 7.46937 132.956 7.46937C133.804 7.46937 134.602 7.64094 135.351 7.98408C135.512 7.38884 135.842 6.92314 136.339 6.587C136.843 6.24386 137.452 6.07229 138.167 6.07229H139.07V8.65636H138.293C138.013 8.65636 137.767 8.72639 137.557 8.86645C137.354 9.00651 137.228 9.19909 137.179 9.44419C137.809 10.2635 138.125 11.2124 138.125 12.2909C138.125 13.6634 137.631 14.8084 136.643 15.7258C135.656 16.6432 134.427 17.1019 132.956 17.1019C132.354 17.1019 131.752 17.0108 131.15 16.8288C130.779 17.0528 130.593 17.368 130.593 17.7741C130.593 18.0403 130.702 18.2608 130.919 18.4359C131.136 18.611 131.416 18.6985 131.759 18.6985H135.33ZM132.956 10.1165C132.298 10.1165 131.752 10.3231 131.318 10.7362C130.891 11.1494 130.677 11.6676 130.677 12.2909C130.677 12.9141 130.891 13.4323 131.318 13.8455C131.752 14.2587 132.298 14.4653 132.956 14.4653C133.608 14.4653 134.15 14.2587 134.585 13.8455C135.019 13.4323 135.236 12.9141 135.236 12.2909C135.236 11.6676 135.019 11.1494 134.585 10.7362C134.15 10.3231 133.608 10.1165 132.956 10.1165Z" fill="#292524"/>
<path d="M122.904 7.73137H125.698V18.6979H122.904V17.3849C121.944 18.4353 120.754 18.9605 119.332 18.9605C117.806 18.9605 116.531 18.4108 115.509 17.3113C114.486 16.2119 113.975 14.8463 113.975 13.2146C113.975 11.583 114.486 10.2174 115.509 9.11794C116.531 8.01849 117.806 7.46876 119.332 7.46876C120.761 7.46876 121.951 7.99047 122.904 9.03391V7.73137ZM119.868 16.2504C120.736 16.2504 121.458 15.9598 122.032 15.3785C122.613 14.7973 122.904 14.076 122.904 13.2146C122.904 12.3533 122.613 11.632 122.032 11.0507C121.458 10.4695 120.736 10.1789 119.868 10.1789C119.007 10.1789 118.289 10.4695 117.715 11.0507C117.14 11.632 116.853 12.3533 116.853 13.2146C116.853 14.076 117.14 14.7973 117.715 15.3785C118.289 15.9598 119.007 16.2504 119.868 16.2504Z" fill="#292524"/>
<path d="M114.553 3.85542V6.64958H110.267V18.6981H107.305V6.64958H102.998V3.85542H114.553Z" fill="#292524"/>
<path d="M102.252 7.55304H102.725V10.4417H102.252C101.258 10.4417 100.48 10.7149 99.9203 11.2611C99.367 11.8073 99.0904 12.5496 99.0904 13.488V18.6982H96.2962V7.73161H99.0904V9.1497C99.9308 8.08526 100.985 7.55304 102.252 7.55304Z" fill="#292524"/>
<path d="M94.3424 13.2356C94.3424 13.5858 94.3214 13.9149 94.2793 14.2231H85.7813C85.9774 14.9163 86.3521 15.4661 86.9053 15.8722C87.4585 16.2784 88.1308 16.4815 88.9221 16.4815C89.5594 16.4815 90.1441 16.3554 90.6763 16.1033C91.2086 15.8442 91.6287 15.5186 91.9369 15.1264L93.8066 16.7651C93.2254 17.4584 92.5041 17.9976 91.6427 18.3828C90.7884 18.7679 89.8535 18.9605 88.8381 18.9605C87.6896 18.9605 86.6497 18.7084 85.7183 18.2042C84.7869 17.7 84.0586 17.0067 83.5334 16.1243C83.0082 15.235 82.7456 14.2511 82.7456 13.1726C82.7456 12.1082 82.9977 11.1418 83.5019 10.2734C84.0131 9.39806 84.7134 8.71177 85.6027 8.21457C86.4991 7.71736 87.49 7.46876 88.5755 7.46876C90.2212 7.46876 91.5937 8.01849 92.6932 9.11794C93.7926 10.2104 94.3424 11.583 94.3424 13.2356ZM90.3297 10.536C89.8255 10.1229 89.2337 9.91627 88.5545 9.91627C87.8752 9.91627 87.2834 10.1229 86.7792 10.536C86.275 10.9422 85.9354 11.4884 85.7603 12.1747H91.3591C91.1841 11.4884 90.8409 10.9422 90.3297 10.536Z" fill="#292524"/>
<path d="M81.4641 13.2356C81.4641 13.5858 81.4431 13.9149 81.4011 14.2231H72.903C73.0991 14.9163 73.4738 15.4661 74.027 15.8722C74.5802 16.2784 75.2525 16.4815 76.0438 16.4815C76.6811 16.4815 77.2658 16.3554 77.7981 16.1033C78.3303 15.8442 78.7505 15.5186 79.0586 15.1264L80.9284 16.7651C80.3471 17.4584 79.6258 17.9976 78.7645 18.3828C77.9101 18.7679 76.9752 18.9605 75.9598 18.9605C74.8113 18.9605 73.7714 18.7084 72.84 18.2042C71.9086 17.7 71.1803 17.0067 70.6551 16.1243C70.1299 15.235 69.8673 14.2511 69.8673 13.1726C69.8673 12.1082 70.1194 11.1418 70.6236 10.2734C71.1348 9.39806 71.8351 8.71177 72.7245 8.21457C73.6208 7.71736 74.6117 7.46876 75.6972 7.46876C77.3429 7.46876 78.7154 8.01849 79.8149 9.11794C80.9144 10.2104 81.4641 11.583 81.4641 13.2356ZM77.4514 10.536C76.9472 10.1229 76.3555 9.91627 75.6762 9.91627C74.9969 9.91627 74.4052 10.1229 73.901 10.536C73.3967 10.9422 73.0571 11.4884 72.882 12.1747H78.4809C78.3058 11.4884 77.9626 10.9422 77.4514 10.536Z" fill="#292524"/>
<path d="M68.7013 7.55304H69.174V10.4417H68.7013C67.7068 10.4417 66.9295 10.7149 66.3693 11.2611C65.8161 11.8073 65.5394 12.5496 65.5394 13.488V18.6982H62.7453V7.73161H65.5394V9.1497C66.3798 8.08526 67.4337 7.55304 68.7013 7.55304Z" fill="#292524"/>
<path d="M57.2935 7.73137H60.0877V18.6979H57.2935V17.3849C56.3341 18.4353 55.1436 18.9605 53.722 18.9605C52.1954 18.9605 50.9209 18.4108 49.8985 17.3113C48.876 16.2119 48.3648 14.8463 48.3648 13.2146C48.3648 11.583 48.876 10.2174 49.8985 9.11794C50.9209 8.01849 52.1954 7.46876 53.722 7.46876C55.1506 7.46876 56.3411 7.99047 57.2935 9.03391V7.73137ZM54.2578 16.2504C55.1261 16.2504 55.8474 15.9598 56.4217 15.3785C57.0029 14.7973 57.2935 14.076 57.2935 13.2146C57.2935 12.3533 57.0029 11.632 56.4217 11.0507C55.8474 10.4695 55.1261 10.1789 54.2578 10.1789C53.3964 10.1789 52.6786 10.4695 52.1044 11.0507C51.5301 11.632 51.243 12.3533 51.243 13.2146C51.243 14.076 51.5301 14.7973 52.1044 15.3785C52.6786 15.9598 53.3964 16.2504 54.2578 16.2504Z" fill="#292524"/>
<path d="M40.8123 18.961C39.7129 18.961 38.6799 18.7649 37.7135 18.3727C36.7471 17.9736 35.9173 17.4343 35.224 16.7551C34.5307 16.0758 33.9845 15.2634 33.5853 14.318C33.1862 13.3656 32.9866 12.3502 32.9866 11.2718C32.9866 10.1933 33.1862 9.18141 33.5853 8.23602C33.9845 7.28362 34.5307 6.46779 35.224 5.7885C35.9173 5.10922 36.7471 4.5735 37.7135 4.18134C38.6799 3.78918 39.7129 3.59309 40.8123 3.59309C42.1849 3.59309 43.4454 3.89072 44.5939 4.48596C45.7424 5.08121 46.6632 5.89705 47.3565 6.93348L44.7935 8.51964C44.3593 7.87537 43.7956 7.37116 43.1023 7.00701C42.409 6.64286 41.6457 6.46078 40.8123 6.46078C39.4538 6.46078 38.3158 6.91947 37.3984 7.83685C36.488 8.75423 36.0328 9.89921 36.0328 11.2718C36.0328 12.6443 36.488 13.7928 37.3984 14.7172C38.3158 15.6346 39.4538 16.0933 40.8123 16.0933C41.6457 16.0933 42.409 15.9112 43.1023 15.547C43.7956 15.1829 44.3593 14.6787 44.7935 14.0344L47.3565 15.6206C46.6632 16.657 45.7424 17.4728 44.5939 18.0681C43.4454 18.6633 42.1849 18.961 40.8123 18.961Z" fill="#292524"/>
</g>
<defs>
<clipPath id="clip0_992_17993">
<rect width="25.3374" height="25.3374" fill="white"/>
</clipPath>
<clipPath id="clip1_992_17993">
<rect width="111.073" height="20.0637" fill="white" transform="translate(32.9865 2.63696)"/>
</clipPath>
</defs>
</svg>
