<svg width="56" height="56" viewBox="0 0 56 56" fill="none" xmlns="http://www.w3.org/2000/svg">
<path d="M32.6547 17.9028C32.5847 18.0953 32.4797 18.2703 32.3222 18.4103C32.0247 18.7078 31.6397 18.8653 31.2372 18.8653C30.8347 18.8653 30.4672 18.7253 30.1522 18.4103C29.5572 17.8153 29.5572 16.8528 30.1522 16.2578C30.2922 16.1178 30.4672 15.9953 30.6597 15.9253C30.8347 15.8378 31.0272 15.8203 31.2197 15.8203C31.3772 15.8203 31.5347 15.8553 31.6922 15.9078C31.9197 15.9778 32.1297 16.1003 32.3047 16.2753C32.4797 16.4503 32.6022 16.6603 32.6722 16.8878C32.7772 17.2203 32.7772 17.5878 32.6372 17.9203L32.6547 17.9028Z" fill="#FFC700"/>
<path d="M38.0096 41.5282C38.0096 42.5607 37.5896 43.5582 36.8721 44.2932C36.1546 45.0282 35.1396 45.4307 34.1071 45.4307H34.0021L27.9471 45.2557C26.8621 45.2207 25.8471 44.7832 25.0771 44.0132L15.5396 34.4932C14.2796 33.2332 14.2096 31.1857 15.2421 29.6107C15.3996 29.3657 15.5921 29.1382 15.8196 28.9107L15.9596 28.7707L18.1296 30.9407L17.9896 31.0807C17.7271 31.3607 17.5871 31.6932 17.5871 31.9557C17.5871 32.1132 17.6221 32.2357 17.7271 32.3232L27.2471 41.8607C27.4571 42.0707 27.7371 42.1932 28.0346 42.1932L30.3446 42.2632L31.9896 42.2982L34.0896 42.3507H34.1246C34.4221 42.3507 34.6321 42.1932 34.7196 42.1057C34.8071 42.0007 34.9821 41.8082 34.9646 41.4932L34.9121 39.3582L34.8771 37.7657L34.8071 35.4382C34.8071 35.1407 34.6846 34.8607 34.4571 34.6507L31.5346 31.7107L30.7646 30.9407L29.9946 30.1707L27.8421 28.0007L27.0721 27.2307L26.3021 26.4607L24.9721 25.1307C24.8846 25.0432 24.7621 24.9907 24.6046 24.9907C24.3421 24.9907 24.0096 25.1307 23.7296 25.3932L22.6621 26.4607L21.8921 27.2307L19.7221 25.0607L20.4921 24.2907L21.5596 23.2232C22.4171 22.3657 23.5371 21.9282 24.6046 21.9282C25.5496 21.9282 26.4596 22.2607 27.1421 22.9432L36.6796 32.4807C37.4321 33.2507 37.8871 34.2657 37.9046 35.3507L38.0796 41.4232C38.0796 41.4232 38.0796 41.4932 38.0796 41.5282H38.0096Z" fill="#FFC700"/>
<path d="M38.01 14.5953L37.835 20.6503C37.8175 21.7353 37.3625 22.7503 36.61 23.5203L32.9 27.2303L30.7475 25.0603L34.44 21.3678C34.65 21.1578 34.7725 20.8778 34.79 20.5803L34.86 18.2703L34.895 16.6253L34.9475 14.5253C34.9475 14.2103 34.79 14.0003 34.7025 13.9128C34.615 13.8253 34.4225 13.6678 34.1075 13.6678H34.0725L31.9725 13.7203L30.3275 13.7553L28.0175 13.8253C27.72 13.8253 27.44 13.9478 27.23 14.1578L17.71 23.6953C17.6225 23.7828 17.57 23.9053 17.57 24.0628C17.57 24.3253 17.71 24.6753 17.9725 24.9378L18.095 25.0778L18.865 25.8478L21.035 28.0003L22.575 29.5403L23.6425 30.6078C23.905 30.8878 24.255 31.0103 24.5175 31.0103C24.675 31.0103 24.7975 30.9753 24.885 30.8703L26.985 28.7703L29.1375 30.9403L28.385 31.7103L27.0375 33.0403C26.355 33.7228 25.445 34.0553 24.5 34.0553C23.4325 34.0553 22.33 33.6178 21.455 32.7603L20.3875 31.6928L15.785 27.0903C15.575 26.8803 15.3825 26.6353 15.2075 26.3903C14.175 24.8153 14.245 22.7853 15.505 21.5253L25.0425 11.9878C25.795 11.2178 26.8275 10.7803 27.9125 10.7453L33.9675 10.5703H34.0725C35.105 10.5703 36.1025 10.9728 36.8375 11.7078C37.59 12.4603 38.01 13.5103 37.975 14.5778L38.01 14.5953Z" fill="#FFC700"/>
<path d="M32.6899 39.1303C32.6199 39.3578 32.4974 39.5678 32.3224 39.7428C32.1474 39.9178 31.9374 40.0403 31.7099 40.1103C31.5699 40.1628 31.3949 40.1978 31.2374 40.1978C31.0449 40.1978 30.8524 40.1628 30.6774 40.0928C30.5024 40.0228 30.3274 39.9178 30.1699 39.7603C29.5749 39.1653 29.5749 38.2028 30.1699 37.6078C30.4674 37.3103 30.8524 37.1528 31.2549 37.1528C31.6574 37.1528 32.0424 37.3103 32.3399 37.6078C32.4799 37.7478 32.6024 37.9228 32.6724 38.1153C32.8124 38.4478 32.8124 38.8153 32.7074 39.1478L32.6899 39.1303Z" fill="#FFC700"/>
</svg>
